PathFileType	4	(X/Y/Z)	15_2_45_p0_0-572.trc
DataRate	CameraRate	NumFrames	NumMarkers	Units	OrigDataRate	OrigDataStartFrame	OrigNumFrames
60.0	60.0	6	27	m	60.0	71	573
Frame#	Time	RHip			RKnee			RAnkle			RBigToe			RSmallToe			RHeel			LHip			LKnee			LAnkle			LBigToe			LSmallToe			LHeel			Neck			Head			Nose			RShoulder			RElbow			RWrist			RThumb			RIndex			RPinky			LShoulder			LElbow			LWrist			LThumb			LIndex			LPinky			
		X1	Y1	Z1	X2	Y2	Z2	X3	Y3	Z3	X4	Y4	Z4	X5	Y5	Z5	X6	Y6	Z6	X7	Y7	Z7	X8	Y8	Z8	X9	Y9	Z9	X10	Y10	Z10	X11	Y11	Z11	X12	Y12	Z12	X13	Y13	Z13	X14	Y14	Z14	X15	Y15	Z15	X16	Y16	Z16	X17	Y17	Z17	X18	Y18	Z18	X19	Y19	Z19	X20	Y20	Z20	X21	Y21	Z21	X22	Y22	Z22	X23	Y23	Z23	X24	Y24	Z24	X25	Y25	Z25	X26	Y26	Z26	X27	Y27	Z27	
71	1.1833333333333333	0.23519956249926582	0.3296622223744765	1.0975574766003806	0.2446371488997418	0.23200500982714956	1.5068088817538408	0.2769011487234726	0.21889064425464774	1.9147855313407223	0.248869687149288	0.0417102419394958	1.92543275231794	0.3198904669243897	0.058143658590852756	1.9114520780301316	0.26105521046151703	0.2809677631007122	1.98631869890869	0.006303661092506367	0.33468035148011616	1.1173159346943986	0.032085444186675895	0.2692044589521396	1.548646604146927	0.04789239126613861	0.25273798907125655	1.910534044291451	0.04738412749546533	0.1027734135803361	1.963849653234377	0.00810574165209367	0.10437185847633172	1.9388725627150971	0.06547454581589873	0.2745334701025826	1.957386830779794	0.07103857309214366	0.46101129858809686	0.5552576486754943	0.06696932256993539	0.4416647023187287	0.30269265194139167	0.06476753071518665	0.3542864007729171	0.41105627995326427	0.2388969520832806	0.4055393377012432	0.6096357198007762	0.32544389863772666	0.35406271254590904	0.8098528730141304	0.1698295442447579	0.18891378508423703	0.819106275664609	0.06696648205283774	0.18127477150568197	0.784405192216643	0.06238372803616639	0.15793461578575083	0.7902738721231867	0.0911753238455859	0.16147363860091396	0.8695984323673108	-0.0900673126903786	0.42730682524535235	0.6459051833024078	-0.1161075601940061	0.40255995260857086	0.9029914707715442	-0.05183261533169469	0.2527448733623077	1.0613483119424474	0.03972604981043893	0.20765975065074582	1.1189963651395234	0.02467795861643252	0.18750627905137118	1.150359198410275	-0.030228587581192564	0.23836128218782188	1.2070915593387523
72	1.2	0.23535949376564075	0.3299737754125432	1.0969941176933202	0.24462129295405058	0.24676368238159008	1.5127717380736092	0.27710492388687885	0.21709836368222885	1.9173287168897355	0.247434009715967	0.043261266516223314	1.9181232633781666	0.3156856930389976	0.05025653529443198	1.9011082810315953	0.25834525762899396	0.27219046933395635	1.977250718052685	0.004991944547085646	0.33390313834221275	1.1155708382671419	0.032058341662201825	0.26925668640116723	1.5483218818269966	0.04871441325777611	0.25361116349983936	1.905915557279941	0.04992771121780527	0.10562375045117028	1.9550276266025224	0.00568499337724657	0.11681203979991107	1.9414258228729009	0.06332423498908642	0.27333430827512245	1.9535190370423068	0.07113729654765488	0.4611657091781731	0.5553859638243678	0.06667582231275655	0.44324876727298296	0.2963939386650508	0.0685912743016447	0.3556718437838257	0.41119794484445443	0.23928356575617832	0.4046816936510502	0.6128158134281024	0.3254430403343218	0.34972135250377123	0.8226589938788348	0.16767045454182797	0.19324482796751102	0.8014877760534994	0.05790493621346956	0.17456537329673552	0.7638190098248991	0.05676149059925688	0.14727965120105316	0.775166866685929	0.0905552564765584	0.14599499810210512	0.8396494003397449	-0.08703110763371676	0.43813192026358516	0.6495527500983956	-0.11229143176758502	0.4047070423003426	0.9036966675131506	-0.051508767071848434	0.25162589724422163	1.0648227451017505	0.04350374916011679	0.20936090982938	1.1197876346696873	0.026447119272722378	0.18709584414541852	1.1587183508612082	-0.029884327091670288	0.23705759613196017	1.2101440541945396
73	1.2166666666666666	0.23451117451694808	0.3301372890138492	1.093348013325147	0.245742690132393	0.24664967727570974	1.517459373396509	0.2798637923506919	0.2053371012647121	1.9014215764797546	0.24799931723924845	0.04266412134171522	1.9275366421973945	0.3160531938081385	0.05110050395096609	1.901040856368651	0.2642645182016178	0.28310766571782336	1.9872337345664053	0.007616666099305576	0.34487907047461785	1.1170398779517139	0.030946638621930898	0.26913453635175033	1.5435151627819055	0.047684172334631646	0.2528493723576131	1.9096214227478647	0.04877318878158859	0.10502011250142732	1.959219740435418	0.004668353975147028	0.11623680412146635	1.9453206157345408	0.06059403527869045	0.2626817629347162	1.9464157778586006	0.07850927029394303	0.45995195997195554	0.5543723636900566	0.06697749095482562	0.4418577488606768	0.2994396484377037	0.06859532786940292	0.3558031257229953	0.4112397139888319	0.23921246274617347	0.404368995465265	0.6126244301963152	0.3297249988108343	0.3609945262254062	0.8273643403684529	0.16411657156890766	0.19549368702754658	0.780802184185371	0.06155668207255239	0.17798945022452245	0.7559503369200555	0.062468530272622266	0.1523086355846179	0.7599210349312386	0.09280167553264052	0.1452927883548623	0.8090112167621439	-0.08271497327951315	0.42671110255048245	0.6452572844872049	-0.11625660766587216	0.4021324200711752	0.9028140630559948	-0.0514694718128355	0.25183126883722157	1.0648641932193676	0.03954874841601458	0.20765831857550668	1.1189009631576374	0.02627481526496279	0.18743667103634706	1.1580270952971534	-0.029851587440512698	0.23729213082092257	1.2103639390238397
74	1.2333333333333334	0.2396885248841773	0.34032764726363	1.1026497283288856	0.24576467555330192	0.24662311956947064	1.51739689582748	0.27980110988730816	0.20527443267155301	1.9014388748299704	0.2475788165997777	0.04430385195443388	1.9177495164304506	0.31615811806108124	0.05178032298175884	1.9010722865530214	0.2583247900023409	0.27224882716809673	1.977207289201398	0.008452884940222857	0.3450569385920043	1.1213983626897421	0.03194702095729842	0.26926285686033063	1.5484732036059252	0.04730534410699449	0.2546155970468157	1.9062671135588714	0.04401105106436888	0.09393481768037287	1.9495619106483768	0.004075243415099599	0.11812320959304289	1.942755139203651	0.06054737751862434	0.2625625952594932	1.9471188427594788	0.07858665011893143	0.4599211034984619	0.5543407781626594	0.0707037324485426	0.43022072425949004	0.2996772181500853	0.06865613896430957	0.35570510277686995	0.41126968640675415	0.23935980017514163	0.40433719505677457	0.6127540756536525	0.32307788853962344	0.36308974913806813	0.8288373709780292	0.1630872048889833	0.19673709836969705	0.7736482359625003	0.058344439091885636	0.19086803937299823	0.7543510696090947	0.06257932940538159	0.16610546569011275	0.7553837165784274	0.08911995112418729	0.15854475127209636	0.8100213645839593	-0.08262731355496486	0.42671978978574454	0.6451888429775732	-0.1159558408330163	0.40349578699211364	0.8992736517638578	-0.05147178913428932	0.25201500216335876	1.0648524889916693	0.039840218316960524	0.20663510660169077	1.1220367228685029	0.026251576608344252	0.18737030532689386	1.1580194421545282	-0.029876203017879556	0.23726213150415842	1.2103722550405667
75	1.25	0.2344316620576764	0.3302673497697327	1.0933882848836742	0.23674325325050705	0.23430012105884726	1.5090089793140322	0.2771421550039904	0.2171216326110083	1.9171849839475323	0.2475026452623547	0.044556122719370386	1.9177214785399086	0.3161426612743034	0.05215103177525468	1.901167949412363	0.2583605132273062	0.27234456171890026	1.977071159335899	0.008013698168621599	0.34621377155923466	1.1136853410832404	0.030877555632088514	0.26913334455745463	1.5435024991345865	0.04729202772142187	0.25464037215142565	1.9062291117033225	0.04385361200706742	0.09421787678183506	1.9497631240346958	0.003992228821669348	0.11830483334339952	1.9429810136072263	0.06017227275576343	0.2639577412000606	1.9439891508135956	0.0821947844079059	0.46249793521732	0.551590966051691	0.07050278755383682	0.43066202387325725	0.29653789525510343	0.06866634687394708	0.35580790272675006	0.41129814001193254	0.2393482197950455	0.4044592209799963	0.6129199806112048	0.3206965972409543	0.3756611221601113	0.8350915924143204	0.16249977024883	0.19752764464599243	0.770270295419222	0.054192004984981175	0.19145947455584728	0.7468008659303736	0.062331804765404175	0.16721819686198985	0.7506067135368681	0.08453311676111949	0.17173853459769417	0.8084206535435438	-0.08248978866016925	0.42667705569176423	0.6452204262032414	-0.11600696965138414	0.4033003263921415	0.8990233067239604	-0.051471269598009184	0.2521224973375531	1.0648754051287765	0.040212739906009154	0.20777616280061528	1.1182777896160812	0.026684239107578604	0.18878623241761147	1.1543681777416535	-0.02932363958338919	0.23808678406544498	1.2120858287534135
76	1.2666666666666666	0.23523057899746005	0.33002832394635256	1.0974282699744677	0.23669664399512558	0.23429505384274896	1.5089820339000541	0.27670643923279725	0.2187828587556975	1.9138859509657353	0.2487563571003264	0.04442049039978479	1.9229036342014694	0.3160019573413033	0.05172425464198131	1.9014135111306372	0.25840294121954377	0.27221906725269357	1.9773589969873004	0.008367369840673688	0.34485916947740153	1.121429648133452	0.030871716353657035	0.2689684240916761	1.5433315830376328	0.051669986653229465	0.24173004098587184	1.895100064092986	0.04198569549980836	0.0937900391942777	1.9518732120474034	0.002559506032225511	0.11871654488839996	1.9448204334812007	0.059112750560168195	0.26184410801293123	1.950057471197028	0.08232451710283606	0.46252987214607405	0.5515885885190168	0.07051048494651703	0.43144369538448935	0.2937067486132199	0.06874672731485551	0.3556498397985123	0.4112052619380924	0.2394716519462003	0.40453519237395386	0.6130594402278706	0.32379564322179194	0.36232810623455064	0.833129492745984	0.16250835139749809	0.19777150231569843	0.7700100909138887	0.05405164884434016	0.19162890086704887	0.7467679287959442	0.058346629431120046	0.16750027887381777	0.7511807606590678	0.08350027890891751	0.17221547434936824	0.8053148927404389	-0.07883278512951834	0.4287514960701009	0.6419503910917365	-0.11914060622223605	0.39288412625947255	0.8943883695662632	-0.05143277890257712	0.25200753192572994	1.0647447575348368	0.04003484588817271	0.20887201127965818	1.1150629585665386	0.02589486615301002	0.1888861314776335	1.1503724275327207	-0.030263811239850103	0.23836873925691934	1.2070619775800788
